<svg xmlns="http://www.w3.org/2000/svg" viewBox="0 0 505.16 85.51">
  <defs>
    <style>
      .a {
        fill: #6a1029;
      }

      .b {
        fill: #680c27;
        stroke: #680c27;
        stroke-miterlimit: 10;
        stroke-width: 1.25px;
      }
    </style>
  </defs>
  <g>
    <path class="a" d="M25.67,34.88a2.09,2.09,0,1,0,2.09-2.12A2.11,2.11,0,0,0,25.67,34.88Z"/>
    <path class="a" d="M27.67,58.09A1.91,1.91,0,1,0,29.55,60,1.9,1.9,0,0,0,27.67,58.09Z"/>
    <polygon class="a" points="22.12 34.47 22.11 34.47 22.12 34.47 22.12 34.47"/>
    <path class="a" d="M27.87,27.79h-.21a5.19,5.19,0,0,1,.11,1.05A5.19,5.19,0,0,1,27.87,27.79Z"/>
    <polygon class="a" points="33.41 34.47 33.42 34.47 33.41 34.47 33.41 34.47"/>
    <path class="a" d="M39.08,28.84a5.64,5.64,0,0,1-5.66,5.63,5.62,5.62,0,1,1-5.63,6h-.05a5.63,5.63,0,0,1-5.63,5.23,5.52,5.52,0,0,1-.71-.05c-.22.34-2.77,3.75-2.87,5.69-.05,1.14-1.14,4.73-.7,4.73s-.06.71.81.76,3.76-.49,4.19-1.63,3.43-2.23,5.39-2.07,7.23,1.36,7.29,7.35c0,0-.82,5.49-.82,6.09s1.14,10.26,9,10.26,9.33-5.63,9.33-8.41V27.79H39A6,6,0,0,1,39.08,28.84Z"/>
    <path class="a" d="M17.61,57.28s-6.06,6.56-6,6.71-1.94-.22-2-.88,1-2,2-2.24,5.53-5.84,6-9.94c0-.36,0-.36,0-.36s.76-2,1.74-4.28c.25-.59.41-.88.78-.94a5.61,5.61,0,0,1,2-10.88,5.64,5.64,0,0,1-5.66-5.63,6,6,0,0,1,.1-1.05H9s-7.07,2.07-7.07,8.6-.22,40.45-.22,40.45H20.49a9.59,9.59,0,0,1-2.32-6.45c-.11-4.3,3.25-5.71,3.25-8.16S19.68,57.49,17.61,57.28Z"/>
    <path class="a" d="M9,9.52a12.46,12.46,0,0,0,1.5-2.24c0,.86-.06,1.16-.06,1.3v.2l.08,7.36v.44a11.82,11.82,0,0,1-.08,1.58H12.1a18.16,18.16,0,0,1-.1-2l-.14-9.74h3a16.36,16.36,0,0,1,1.66.06V5a10.11,10.11,0,0,1-2,.12H11.86l0-2V2.62a7.68,7.68,0,0,1,.08-1.1H10.3a9.53,9.53,0,0,1,.1,1.62l0,2-7.28,0A11.3,11.3,0,0,1,.88,5V6.5A15.71,15.71,0,0,1,3.1,6.42l6.56,0A19.28,19.28,0,0,1,6.78,10,22.7,22.7,0,0,1,0,14.8,3.22,3.22,0,0,1,1,16a30.77,30.77,0,0,0,3.3-2.06A23.34,23.34,0,0,0,9,9.52Z"/>
    <path class="a" d="M35.62,10.46a22.88,22.88,0,0,1,2.44.08V8.92a15.77,15.77,0,0,1-2.42.1H24a14.15,14.15,0,0,1-2.48-.12v1.64A21.85,21.85,0,0,1,24,10.46Z"/>
    <path class="a" d="M55.58,1.62a15.6,15.6,0,0,1,2,3.18l1-.6a15.94,15.94,0,0,0-2-3.1Z"/>
    <path class="a" d="M57.84.54A16,16,0,0,1,59.9,3.68l1-.56A15.42,15.42,0,0,0,58.82,0Z"/>
    <path class="a" d="M55.84,5.48l-5,0c0-.5.06-.72.1-1.42A18.39,18.39,0,0,1,51.1,1.5l-1.62,0a5.15,5.15,0,0,1,.08,1c0,.88,0,2-.12,3H45.7a10.11,10.11,0,0,1-2.16-.14l0,1.52a14.42,14.42,0,0,1,2.12-.1l3.64,0a11.88,11.88,0,0,1-6.44,10,4.43,4.43,0,0,1,1,1.18,14.77,14.77,0,0,0,5.24-5.3,15.09,15.09,0,0,0,1.6-5.9l5.6,0a44,44,0,0,1-.5,7.1c-.38,2-.7,2.46-1.68,2.46a9,9,0,0,1-2.58-.5,3.13,3.13,0,0,1,.22,1.24v.24a11.38,11.38,0,0,0,2.48.34c1.8,0,2.4-.72,2.9-3.46a54.24,54.24,0,0,0,.56-7A3.2,3.2,0,0,1,57.9,6l-.74-.66A2.92,2.92,0,0,1,55.84,5.48Z"/>
    <path class="a" d="M80.18,15.36V13.68a14.26,14.26,0,0,1-2.32.12H66.52a14.26,14.26,0,0,1-2.32-.12v1.68a18.06,18.06,0,0,1,2.3-.1H77.88A17.87,17.87,0,0,1,80.18,15.36Z"/>
    <path class="a" d="M76,5.72a19.85,19.85,0,0,1,2.12.08V4.18A12.45,12.45,0,0,1,76,4.3H68.36a12.45,12.45,0,0,1-2.14-.12V5.8a19.85,19.85,0,0,1,2.12-.08Z"/>
    <path class="a" d="M90.38,10.86a22,22,0,0,0-2-4.44l-1.26.42A16.5,16.5,0,0,1,89,11.32Z"/>
    <path class="a" d="M90.86,18.18a14.5,14.5,0,0,0,6.62-5.78,18,18,0,0,0,1.76-4.48,11.8,11.8,0,0,1,.44-1.62L98.2,6v.2A8.41,8.41,0,0,1,98,7.54a15.09,15.09,0,0,1-1.7,4.3,12.84,12.84,0,0,1-6.34,5.22A4,4,0,0,1,90.86,18.18Z"/>
    <path class="a" d="M94.42,9.92a20.06,20.06,0,0,0-1.94-4.3L91.26,6a17.55,17.55,0,0,1,1.84,4.38Z"/>
    <path class="a" d="M116.92,13.16a21.16,21.16,0,0,0,4-7.52c.22-.72.22-.74.4-1l-.86-.84a2,2,0,0,1-1,.14c-5.78.1-5.78.1-6,.16a19.13,19.13,0,0,0,.92-1.78,3.82,3.82,0,0,1,.44-.82L113.1,1.1A9.07,9.07,0,0,1,111.84,4a14.82,14.82,0,0,1-5,5.48,3,3,0,0,1,1.12,1,19.28,19.28,0,0,0,4.78-5.2l6.74-.12a18.38,18.38,0,0,1-3.44,6.7A17,17,0,0,1,109,17a3,3,0,0,1,1,1.18A19.58,19.58,0,0,0,116.92,13.16Z"/>
    <path class="a" d="M135.8,8.16a1.64,1.64,0,1,0,1.64,1.64A1.65,1.65,0,0,0,135.8,8.16Z"/>
    <path class="a" d="M150.3,18.68h1.38V17.5h10.56v1.18h1.4a12.86,12.86,0,0,1-.12-2.32V5.72a19.3,19.3,0,0,1,.1-2.48,19.79,19.79,0,0,1-2.42.1h-4.82A21.22,21.22,0,0,0,157.52.8L156.08.54A10.67,10.67,0,0,1,155,3.34h-2.32a18.92,18.92,0,0,1-2.36-.1,20.28,20.28,0,0,1,.1,2.48V16.34A16.34,16.34,0,0,1,150.3,18.68Zm1.38-14.16h10.58V7.58H151.68Zm0,4.22h10.58V11.9H151.68Zm0,4.32h10.58v3.26H151.68Z"/>
    <path class="a" d="M179,14.14a17.36,17.36,0,0,1,1.46,4.38l1.26-.32a23.31,23.31,0,0,0-1.6-4.36Z"/>
    <path class="a" d="M183,14.28a18.69,18.69,0,0,1,2.88,4.48L187,18a22.93,22.93,0,0,0-3-4.4Z"/>
    <path class="a" d="M184.8,4.5l.92-.68a15.25,15.25,0,0,0-2-2.42l-.92.58A10.09,10.09,0,0,1,184.8,4.5Z"/>
    <path class="a" d="M171.14,16a9.38,9.38,0,0,1-1.74,2.1l1.08.86a11.86,11.86,0,0,0,2.8-4.74l-1.12-.54A8.28,8.28,0,0,1,171.14,16Z"/>
    <path class="a" d="M170,8.24a13.53,13.53,0,0,0,3.72-4.62h3.18a13.17,13.17,0,0,1-1,2.68,9.15,9.15,0,0,0-2.06-1.5l-.62.84a8.87,8.87,0,0,1,2.14,1.58,12.82,12.82,0,0,1-1.2,1.64A9.82,9.82,0,0,0,172,7.12l-.72.8a8.11,8.11,0,0,1,2.06,1.76,12.69,12.69,0,0,1-4,2.72,2.79,2.79,0,0,1,.82,1,15.75,15.75,0,0,0,2.66-1.66,14.69,14.69,0,0,0,3.62-4.16,18.25,18.25,0,0,0,1.8-4.46l-.72-.64a11.44,11.44,0,0,1-1.52.08h-1.8c.08-.2.1-.28.16-.42a7.68,7.68,0,0,1,.44-1.1L173.4.78a6.62,6.62,0,0,1-.66,2.16,10.81,10.81,0,0,1-3.6,4.4A4,4,0,0,1,170,8.24Z"/>
    <path class="a" d="M175.12,14.18a20.41,20.41,0,0,1,.62,4.56l1.3-.18a23.34,23.34,0,0,0-.76-4.56Z"/>
    <path class="a" d="M183.56,9.34A9.1,9.1,0,0,1,182,6.54h2.74a12.82,12.82,0,0,1,1.9.12V5.3a13.32,13.32,0,0,1-2,.12h-2.94A21,21,0,0,0,182,2.6a6.72,6.72,0,0,1,.12-1.6H180.6a8.77,8.77,0,0,1,.12,1.5,20.65,20.65,0,0,1-.16,2.92h-.92a14.19,14.19,0,0,1-1.84-.1V6.64a12.09,12.09,0,0,1,1.84-.1h.7a9.07,9.07,0,0,1-.94,2.4,7.75,7.75,0,0,1-3.68,3.22,3.86,3.86,0,0,1,.84,1,9.35,9.35,0,0,0,3.28-2.74,9.86,9.86,0,0,0,1.46-2.94,11.49,11.49,0,0,0,5.06,5.88,3.56,3.56,0,0,1,.76-1.14A11.07,11.07,0,0,1,183.56,9.34Z"/>
    <path class="a" d="M194,17.94a3.46,3.46,0,0,1,1.08.9c1.66-2.62,2.38-5.94,2.5-11.56,1.66-.12,1.66-.12,2.34-.2v9.58a16.53,16.53,0,0,1-.12,2.14h1.5a15.17,15.17,0,0,1-.12-2.12V6.94c.76-.1,1.1-.16,1.92-.32.18,1.54.18,1.54.2,1.82A30.56,30.56,0,0,0,204.32,13a15.32,15.32,0,0,0,3.34,5.86,4.51,4.51,0,0,1,.94-1.16A13,13,0,0,1,205,11.36a25.37,25.37,0,0,0,3.4-2.22l-.8-.94a12.88,12.88,0,0,1-2.88,2,23.53,23.53,0,0,1-.54-3.86,21.69,21.69,0,0,0,3.1-1,4.23,4.23,0,0,1,.44-.16l-.94-1a7.37,7.37,0,0,1-2.12.88,29.76,29.76,0,0,1-7.14,1.08V4a32,32,0,0,0,8.9-1.84l.74-.28L206.1.78a10.53,10.53,0,0,1-2.92,1.1,32.74,32.74,0,0,1-6.48,1,4.4,4.4,0,0,1-.46,0c.06.72.08,1.54.08,2.64a39.74,39.74,0,0,1-.66,8.28A10.1,10.1,0,0,1,194,17.94Z"/>
    <path class="a" d="M192.48,16.66a26.84,26.84,0,0,0,1.64-4.28l-1-.78c-.86,2.88-1.94,5.2-2.76,6l1.14,1C192.1,17.42,192.44,16.78,192.48,16.66Z"/>
    <path class="a" d="M194.26,4.8l.82-1A17.4,17.4,0,0,0,192,1.18l-.82.9A13.47,13.47,0,0,1,194.26,4.8Z"/>
    <path class="a" d="M194.44,8.54a21.45,21.45,0,0,0-3.32-2.44L190.4,7a15.94,15.94,0,0,1,3.28,2.56Z"/>
    <path class="a" d="M218.64,9.2a4.85,4.85,0,0,0,.58-1.92h2.38V9.54c0,.94.38,1.12,2.32,1.12,2.34,0,2.6-.18,2.86-2a3,3,0,0,1-1-.46,3,3,0,0,1-.2,1.14c-.12.26-.36.3-1.54.3s-1.26,0-1.26-.4V7.28h4.5V17c0,.42-.18.54-.9.54a23.9,23.9,0,0,1-2.6-.22,4.23,4.23,0,0,1,.36,1.34c.92.06,1.66.08,2.22.08a2.71,2.71,0,0,0,1.68-.3c.34-.22.5-.64.5-1.34V7.74a12.47,12.47,0,0,1,.08-1.62,14,14,0,0,1-1.88.08h-3a16.33,16.33,0,0,0,1.16-2.42h2.66a19.27,19.27,0,0,1,2,.1V2.54a14.55,14.55,0,0,1-2.08.12h-6.3V1.78a7.48,7.48,0,0,1,.12-1.36h-1.52a5.94,5.94,0,0,1,.12,1.36v.88h-6a15.56,15.56,0,0,1-2.08-.12V3.88a19.56,19.56,0,0,1,2-.1h2.52a11.81,11.81,0,0,1,1,2.42H214.5a16,16,0,0,1-1.9-.08,13.51,13.51,0,0,1,.08,1.62v9a17,17,0,0,1-.12,2.18h1.5a16.55,16.55,0,0,1-.12-2.18V7.28h4a4,4,0,0,1-.42,1.48c-.56,1.08-1.4,1.64-3.34,2.34a3.75,3.75,0,0,1,.76,1C217.06,11.18,218,10.48,218.64,9.2Zm-1-5.42h5.84a10.37,10.37,0,0,1-1.12,2.42h-3.76A18.42,18.42,0,0,0,217.66,3.78Z"/>
    <path class="a" d="M224.3,16.38a13.71,13.71,0,0,1-.08-1.74V13.16a12.41,12.41,0,0,1,.08-1.64,17.12,17.12,0,0,1-1.82.06h-4c-.76,0-1.12,0-1.7-.06a9.87,9.87,0,0,1,.08,1.38v3a8.81,8.81,0,0,1-.1,1.46h1.28v-1h4.4A15.56,15.56,0,0,1,224.3,16.38Zm-6.22-3.76h5v2.64h-5Z"/>
    <path class="a" d="M236.28,8.18a19.38,19.38,0,0,1,2.12-.08h6.82a19,19,0,0,1,2.1.08,14.06,14.06,0,0,1-.08-1.76V3a13.14,13.14,0,0,1,.08-1.66,15.25,15.25,0,0,1-2.26.1h-6.54a16.5,16.5,0,0,1-2.24-.1,13.9,13.9,0,0,1,.08,1.68V6.44A15.2,15.2,0,0,1,236.28,8.18Zm1.34-5.56H246V7h-8.34Z"/>
    <path class="a" d="M250.16,12a17.33,17.33,0,0,1,.08-2,13.37,13.37,0,0,1-1.72.08h-4.4c-.68,0-1.12,0-1.62-.06a12.49,12.49,0,0,1,.06,1.72V17a16.45,16.45,0,0,1-.08,2h1.3V17.68h5.12v1.26h1.36a12.86,12.86,0,0,1-.1-2.08Zm-1.24,4.52h-5.14V11.28h5.14Z"/>
    <path class="a" d="M233.38,18.94h1.34V17.68h4.64v.88h1.3a15.4,15.4,0,0,1-.08-2V12a17.47,17.47,0,0,1,.06-1.88c-.52,0-1,.06-1.62.06h-3.78a16.38,16.38,0,0,1-1.84-.08,18.58,18.58,0,0,1,.08,1.94v4.84A13.49,13.49,0,0,1,233.38,18.94Zm1.34-7.66h4.64v5.28h-4.64Z"/>
    <path class="a" d="M268.7,2.52a16.67,16.67,0,0,1-3.1,2.1,29.54,29.54,0,0,0-2.68-1.78l-.9.64a19.43,19.43,0,0,1,2.66,1.68h-2.9a15.73,15.73,0,0,1-2.16-.1,19.06,19.06,0,0,1,.08,2.26v6.32a13.38,13.38,0,0,1-.12,2.1H261a12.7,12.7,0,0,1-.12-2.1V12.1h3.76v1.26a14.45,14.45,0,0,1-.12,2.16h1.38a14.27,14.27,0,0,1-.12-2.16V12.1H270V14c0,.48-.1.56-.56.56a10.31,10.31,0,0,1-1.66-.14,4.28,4.28,0,0,1,.28,1.16c.6,0,.94,0,1.4,0,1.4,0,1.72-.28,1.72-1.54V7.52a24.33,24.33,0,0,1,.08-2.46,13.86,13.86,0,0,1-2.18.1h-2.6a22.63,22.63,0,0,0,4-2.66,4.74,4.74,0,0,1,.5-.38l-.5-.72a13.93,13.93,0,0,1-2,.08h-7a11.53,11.53,0,0,1-2.12-.12V2.62a13.43,13.43,0,0,1,2-.1Zm-4.06,8.6h-3.76v-2h3.76Zm0-3h-3.76v-2h3.76Zm5.32,3h-4.18v-2H270Zm0-5v2h-4.18v-2Z"/>
    <path class="a" d="M257.14,5.58l1-.92A23,23,0,0,0,255,1.12l-.92.82A19,19,0,0,1,257.14,5.58Z"/>
    <path class="a" d="M259.24,16.42a3.38,3.38,0,0,1-1.62-1.72V10.78a15,15,0,0,1,.1-2.1,8.57,8.57,0,0,1-1.5.1h-.92a7,7,0,0,1-1.42-.1V10a6.3,6.3,0,0,1,1.34-.1h1.2v4.8a10.82,10.82,0,0,1-2.84,2.34l.68,1.3.56-.48c.34-.32.42-.4.74-.68a14.44,14.44,0,0,0,1.36-1.46,5.41,5.41,0,0,0,1.92,1.78c1.28.66,2.46.8,6.42.8,1.86,0,4.28-.06,6.46-.14a7.8,7.8,0,0,1,.46-1.48,67.06,67.06,0,0,1-8,.42C261.42,17.12,260.12,16.94,259.24,16.42Z"/>
    <path class="a" d="M281.16,18a3.21,3.21,0,0,1,1,.86A12.23,12.23,0,0,0,284,14.12a42.79,42.79,0,0,0,.56-6.38h.84a16.26,16.26,0,0,0,2.48,6.52,12.63,12.63,0,0,1-4.68,3.6,3.82,3.82,0,0,1,.94,1.06,16.47,16.47,0,0,0,4.48-3.66,14.58,14.58,0,0,0,4.08,3.5,5.27,5.27,0,0,1,.86-1.18,12.21,12.21,0,0,1-4.14-3.32,19.81,19.81,0,0,0,3-6.22,7.26,7.26,0,0,1,.28-.76L292,6.52a8.11,8.11,0,0,1-1.66.1h-5.76l0-1.92V3h6.68a12.12,12.12,0,0,1,1.92.1V1.72a13.32,13.32,0,0,1-2,.12h-5.84a18.37,18.37,0,0,1-2.12-.1c.06.68.08,1.34.08,2.5C283.4,12.48,282.88,15.66,281.16,18ZM291.22,7.74a16.58,16.58,0,0,1-2.5,5.48,13.47,13.47,0,0,1-2.12-5.48Z"/>
    <path class="a" d="M276,18.72a9.69,9.69,0,0,0,2.14-3.66L277,14.54A7.8,7.8,0,0,1,275,17.9,3.39,3.39,0,0,1,276,18.72Z"/>
    <path class="a" d="M276.08,12.14c0,.76,0,1.32-.06,1.84a9.42,9.42,0,0,1,1.58-.06H280c.72,0,1.08,0,1.66.06,0-.42-.06-.92-.06-1.78V3.26a11.68,11.68,0,0,1,.06-1.68,12.66,12.66,0,0,1-1.74.06H277.8c-.8,0-1.32,0-1.8-.06a13.46,13.46,0,0,1,.08,1.76Zm1.18-9.42h3.22v2.6h-3.22Zm0,3.64h3.22V9h-3.22Zm0,3.72h3.22v2.78h-3.22Z"/>
    <path class="a" d="M279,15a18.29,18.29,0,0,0,1.4,2.78,5,5,0,0,1,1-.72A12,12,0,0,1,280,14.52Z"/>
    <path class="a" d="M306,2.86a8.35,8.35,0,0,0-6.46,2.66,8.32,8.32,0,0,0-2.1,5.52c0,2.8,1.42,4.88,3.32,4.88,1.44,0,2.62-1.2,3.78-3.84a30,30,0,0,0,2-7.94,5.76,5.76,0,0,1,2.32.5,5.27,5.27,0,0,1,3.18,5,6,6,0,0,1-3.54,5.6,12,12,0,0,1-3.34.94,3.18,3.18,0,0,1,.7,1.34,15.47,15.47,0,0,0,3-.92,7.28,7.28,0,0,0,4.58-6.9,6.69,6.69,0,0,0-1.94-4.88A7.74,7.74,0,0,0,306,2.86Zm-2.76,8.7c-.86,2-1.66,2.9-2.5,2.9-1.08,0-1.92-1.48-1.92-3.4a6.92,6.92,0,0,1,3.26-6,6.32,6.32,0,0,1,3-.94A27.47,27.47,0,0,1,303.22,11.56Z"/>
    <path class="a" d="M324.54,3.16l-1.68-.3a2.21,2.21,0,0,1,0,.32,15.86,15.86,0,0,1-.2,1.88A23.16,23.16,0,0,1,320.62,12a12.86,12.86,0,0,1-2.9,4A4.38,4.38,0,0,1,319,17c2.86-3,4.44-6.78,5.28-12.48A8.05,8.05,0,0,1,324.54,3.16Z"/>
    <path class="a" d="M331,11.84A18.64,18.64,0,0,0,334.3,17a4.64,4.64,0,0,1,1.24-1.12A17.46,17.46,0,0,1,331,7.66a25.14,25.14,0,0,1-.92-4.8l-1.48.3a9.29,9.29,0,0,1,.26,1.32A29.34,29.34,0,0,0,331,11.84Z"/>
    <path class="a" d="M342.8,6.42l-1.26.42a16.5,16.5,0,0,1,1.88,4.48l1.36-.46A22,22,0,0,0,342.8,6.42Z"/>
    <path class="a" d="M348.82,9.92a20.06,20.06,0,0,0-1.94-4.3L345.66,6a17.55,17.55,0,0,1,1.84,4.38Z"/>
    <path class="a" d="M352.6,6.1v.08a8.41,8.41,0,0,1-.22,1.36,15.09,15.09,0,0,1-1.7,4.3,12.84,12.84,0,0,1-6.34,5.22,4,4,0,0,1,.92,1.12,14.5,14.5,0,0,0,6.62-5.78,18,18,0,0,0,1.76-4.48,11.8,11.8,0,0,1,.44-1.62L352.6,6Z"/>
    <path class="a" d="M376.44.42a2.27,2.27,0,0,0-2.28,2.26,2.27,2.27,0,0,0,4.54,0A2.25,2.25,0,0,0,376.44.42Zm0,3.68a1.42,1.42,0,1,1,1.42-1.42A1.43,1.43,0,0,1,376.44,4.1Z"/>
    <path class="a" d="M373.44,15.64a39.57,39.57,0,0,1-4.58.32,20.86,20.86,0,0,1-2.36-.12,2.4,2.4,0,0,1-1.52-.52c-.34-.34-.42-.8-.42-2.2V12.9l0-.12V9.86A30.66,30.66,0,0,0,374,6.52a8.82,8.82,0,0,1,.88-.44l-1-1.36c-1.4,1.34-6.16,3.28-9.32,3.82V3.8a8.85,8.85,0,0,1,.1-1.68H363a11.1,11.1,0,0,1,.08,1.66V13c0,.84,0,1.24,0,1.56a2.66,2.66,0,0,0,.82,1.92c.7.58,2,.82,4.38.82,1.38,0,4-.14,5.3-.28l1-.1.26,0c.3,0,.36,0,.66-.06l-.12-1.6A9.63,9.63,0,0,1,373.44,15.64Z"/>
    <path class="a" d="M396,10.46a22.88,22.88,0,0,1,2.44.08V8.92A15.77,15.77,0,0,1,396,9H384.42a14.15,14.15,0,0,1-2.48-.12v1.64a21.85,21.85,0,0,1,2.48-.08Z"/>
    <path class="a" d="M412.72,6.58V4.82l0-1.44a9.65,9.65,0,0,1,.1-1.7h-1.68a9.63,9.63,0,0,1,.1,1.7V4.82c0,.62,0,1,0,1.76h-5.58a12.33,12.33,0,0,1-2.34-.14V8a18.41,18.41,0,0,1,2.32-.1h5.54a10.08,10.08,0,0,1-1,4.6,9.24,9.24,0,0,1-5,4.12,4.37,4.37,0,0,1,1,1.28,11.52,11.52,0,0,0,5-4.18c1-1.52,1.32-3,1.48-5.82h4.52a18.41,18.41,0,0,1,2.32.1V6.44a12.21,12.21,0,0,1-2.34.14Z"/>
    <path class="a" d="M433.82,8.32c0-.78,0-2.08.06-4a31,31,0,0,0,4.4-1.24,4.13,4.13,0,0,1,.62-.2l-1-1.28a8.36,8.36,0,0,1-2.28,1,32.14,32.14,0,0,1-8.4,1.26c-.3,0-.6,0-1.16,0a5.22,5.22,0,0,1,.48,1.34,37.93,37.93,0,0,0,5.92-.56c0,1.76,0,2.88-.06,3.76h-5.74a9.49,9.49,0,0,1-2.1-.14V9.7a15.49,15.49,0,0,1,2.1-.1h5.62A7.52,7.52,0,0,1,431,13.52,9.35,9.35,0,0,1,426.36,17a3.79,3.79,0,0,1,1.08,1.24,10.78,10.78,0,0,0,5-4.18,9.52,9.52,0,0,0,1.3-4.42h4.9a15.49,15.49,0,0,1,2.1.1V8.18a9.49,9.49,0,0,1-2.1.14Z"/>
    <path class="a" d="M458.6,17.46a11,11,0,0,1,1.82.1V16.1a8.27,8.27,0,0,1-1.8.12h-2.38c.42-2.1.58-3.1,1-6.28a3.71,3.71,0,0,1,.32-1.4L456.94,8a2,2,0,0,1-.94.14h-5.36A10.47,10.47,0,0,1,448.86,8V9.42a8.94,8.94,0,0,1,1.76-.08H456c-.18,1.8-.64,4.74-1.1,6.88h-6.08a8.38,8.38,0,0,1-1.8-.12v1.46a10.75,10.75,0,0,1,1.82-.1Z"/>
    <path class="a" d="M482.4,7.74l-.74-.86a3.38,3.38,0,0,1-1.3.14H470.1a14.39,14.39,0,0,1-2.34-.12V8.4a18.41,18.41,0,0,1,2.32-.1h10.44a12.32,12.32,0,0,1-3.24,5.24,13.73,13.73,0,0,1-5.94,3A4.35,4.35,0,0,1,472.2,18c5.18-1.74,7.94-4.3,9.64-9A5.8,5.8,0,0,1,482.4,7.74Z"/>
    <path class="a" d="M478.28,3.7a13.33,13.33,0,0,1,2.08.1V2.26a9.18,9.18,0,0,1-2.1.14h-6.68a9.18,9.18,0,0,1-2.1-.14V3.8a13.33,13.33,0,0,1,2.08-.1Z"/>
    <path class="a" d="M504,9.56a9.89,9.89,0,0,1-2.36,4A9.24,9.24,0,0,1,498,15.88l.12-12.08A7.75,7.75,0,0,1,498.2,2l-1.64,0a8,8,0,0,1,.08,1.78l-.12,11.7a3.37,3.37,0,0,1-.14,1.36l.8.92a3.33,3.33,0,0,1,.46-.22l.64-.24a13.18,13.18,0,0,0,2.86-1.46,11.36,11.36,0,0,0,4-5.14A5.59,5.59,0,0,1,504,9.56Z"/>
    <path class="a" d="M491.66,3.58c0,4.22-.28,6.84-.9,8.58a9.89,9.89,0,0,1-3.38,4.6,3.69,3.69,0,0,1,1.2,1.08A12.23,12.23,0,0,0,492,12.9c.76-2,.92-3.5,1.08-8.92a10,10,0,0,1,.12-1.72l-1.66-.1A8.9,8.9,0,0,1,491.66,3.58Z"/>
    <g>
      <polygon class="b" points="93.57 54.2 76.32 54.2 76.32 39.75 69.82 39.75 69.82 74.78 76.32 74.78 76.32 59.84 93.57 59.84 93.57 74.78 100.08 74.78 100.08 39.75 93.57 39.75 93.57 54.2"/>
      <path class="b" d="M125.84,49.38a40.08,40.08,0,0,0-9.35,1.24v5.14a40.62,40.62,0,0,1,9.35-1.24c3.32,0,5,1.16,5,3.47v1.94a29,29,0,0,0-5.24-.5c-7.44,0-11.18,2.55-11.18,7.67,0,5.35,3.16,8,9.43,8a12.7,12.7,0,0,0,7.41-2.31l2.3,2.31h3.79V57.85C137.32,52.22,133.48,49.38,125.84,49.38Zm5,19.05a9.89,9.89,0,0,1-6,2c-2.62,0-3.92-1.15-3.92-3.44,0-2.13,1.55-3.19,4.67-3.19a25.75,25.75,0,0,1,5.24.5Z"/>
      <path class="b" d="M162.56,49A53.84,53.84,0,0,0,151.73,50V84h6.49V73.47a12.68,12.68,0,0,0,5.24,1.23c8.14,0,12.21-4.52,12.21-13.5C175.67,53,171.3,49,162.56,49Zm.88,20.32A10.78,10.78,0,0,1,158.22,68V54.56a25.41,25.41,0,0,1,4.61-.36c4.28,0,6.41,2.33,6.41,7Q169.24,69.29,163.44,69.29Z"/>
      <path class="b" d="M198.81,48.61A53.88,53.88,0,0,0,188,49.67v34h6.5V73.12a12.63,12.63,0,0,0,5.24,1.22c8.13,0,12.2-4.52,12.2-13.5Q211.93,48.6,198.81,48.61Zm.89,20.32a10.83,10.83,0,0,1-5.21-1.31V54.2a25.25,25.25,0,0,1,4.59-.36c4.29,0,6.43,2.33,6.43,6.95Q205.51,68.94,199.7,68.93Z"/>
      <path class="b" d="M236.28,66.79,229.8,48.26h-6.9l9.85,25.87a11.84,11.84,0,0,1-6.28,6.15l3.15,4.44a18.06,18.06,0,0,0,9.09-10l10.7-26.49h-6.78Z"/>
      <polygon class="b" points="300.95 70.41 277.56 39.75 274.25 39.75 274.25 74.78 276.58 74.78 276.58 42.64 301.2 74.78 303.27 74.78 303.27 39.75 300.95 39.75 300.95 70.41"/>
      <path class="b" d="M332.19,48.74A29,29,0,0,0,323.82,50v2.18a30,30,0,0,1,8.37-1.22q7.41,0,7.41,5.91V60a62,62,0,0,0-7.68-.5c-6.79,0-10.2,2.54-10.2,7.66q0,7.28,8.93,7.27A19.94,19.94,0,0,0,340,71.92l.6,2.54h1.57V56.72C342.19,51.41,338.84,48.74,332.19,48.74Zm7.41,21a17.35,17.35,0,0,1-9,2.48c-4.24,0-6.36-1.7-6.36-5.14s2.54-5.39,7.63-5.39a64.09,64.09,0,0,1,7.68.51Z"/>
      <path class="b" d="M360.88,44.59h-1.82V67.53c0,4.62,2.1,6.93,6.27,6.93h3.72V72.25h-3.76c-2.49,0-3.73-1.67-3.73-5.06V50.94h7.49v-2.2h-7.7Z"/>
      <path class="b" d="M402.29,68.89a15.8,15.8,0,0,1-9.39,3.27c-4.44,0-6.67-2.39-6.67-7.2V48.74h-2.56V64.88c0,6.39,3,9.58,9.11,9.58a16.24,16.24,0,0,0,9.9-3.28l.29,3.28h1.87V48.74h-2.55Z"/>
      <path class="b" d="M424,53.47l-.33-4.26h-1.84V74.93h2.58V55.75q3.62-4.48,8.21-4.48V49.21C429.43,49.21,426.57,50.64,424,53.47Z"/>
      <path class="b" d="M455.52,48.74A29,29,0,0,0,447.15,50v2.18a30,30,0,0,1,8.37-1.22q7.41,0,7.42,5.91V60a62.11,62.11,0,0,0-7.68-.5c-6.8,0-10.2,2.54-10.2,7.66,0,4.85,3,7.27,8.94,7.27a20,20,0,0,0,9.37-2.54l.58,2.54h1.57V56.72C465.52,51.41,462.19,48.74,455.52,48.74Zm7.42,21A17.39,17.39,0,0,1,454,72.25c-4.25,0-6.36-1.7-6.36-5.14s2.52-5.39,7.62-5.39a64.22,64.22,0,0,1,7.68.51Z"/>
      <rect class="b" x="482.99" y="39.43" width="2.57" height="35.03"/>
    </g>
  </g>
</svg>
